<?xml version="1.0" standalone="no"?>
<!DOCTYPE svg PUBLIC "-//W3C//DTD SVG 20010904//EN"
 "http://www.w3.org/TR/2001/REC-SVG-20010904/DTD/svg10.dtd">
<svg version="1.0" xmlns="http://www.w3.org/2000/svg"
 width="1280.000000pt" height="640.000000pt" viewBox="0 0 1280.000000 640.000000"
 preserveAspectRatio="xMidYMid meet">
<g transform="translate(0.000000,640.000000) scale(0.100000,-0.100000)"
fill="#000000" stroke="none">
<path d="M6939 4597 c-2 -59 -1 -107 4 -107 4 0 7 -9 7 -20 0 -11 -6 -20 -14
-20 -8 0 -20 -16 -26 -35 -6 -19 -16 -35 -21 -35 -5 0 -12 -18 -15 -40 -4 -22
-10 -40 -15 -40 -5 0 -9 -18 -9 -41 0 -32 -3 -40 -15 -35 -12 4 -15 -5 -15
-54 0 -33 -4 -60 -10 -60 -6 0 -10 -50 -10 -131 0 -112 -2 -130 -15 -125 -13
5 -15 -38 -15 -344 0 -343 0 -350 -20 -350 -17 0 -20 7 -20 50 0 47 -2 50 -25
50 -25 0 -25 1 -25 90 l0 90 -41 0 -40 0 3 246 3 246 -92 91 c-51 50 -93 98
-93 106 0 14 -17 16 -126 14 -72 -1 -131 -6 -138 -13 -11 -8 -19 5 -40 60 -14
39 -26 84 -26 100 0 16 -4 31 -9 34 -5 3 -12 44 -16 91 -4 47 -10 85 -14 85
-4 0 -13 -51 -20 -112 -13 -128 -63 -288 -93 -295 -30 -9 -48 -189 -48 -495
l0 -238 -35 0 c-33 0 -37 4 -62 55 -15 30 -33 55 -40 55 -7 0 -25 -25 -40 -55
l-27 -55 -78 0 c-77 0 -78 0 -78 -25 0 -22 -4 -25 -35 -25 -30 0 -35 3 -35 23
0 27 -62 92 -88 92 -15 0 -17 13 -18 106 -1 58 -4 111 -8 118 -4 6 -4 20 -1
31 4 11 2 20 -4 20 -6 0 -11 20 -11 45 l0 45 -89 0 c-115 0 -121 -3 -121 -51
0 -21 -4 -39 -9 -39 -5 0 -10 82 -13 182 -2 132 -7 183 -16 186 -6 2 -12 15
-12 28 0 19 -5 24 -25 24 -16 0 -25 6 -25 15 0 9 -9 15 -25 15 -24 0 -25 2
-25 66 l0 65 -45 -38 c-28 -24 -44 -46 -45 -61 0 -13 -11 -35 -24 -49 -13 -14
-22 -32 -19 -40 3 -8 -3 -20 -13 -28 -17 -12 -19 -32 -22 -214 l-4 -201 -179
0 -179 0 0 -65 0 -64 -77 -3 -78 -3 -3 -592 -2 -593 -30 0 -30 0 0 360 c0 233
-4 360 -10 360 -5 0 -10 20 -10 45 l0 45 -40 0 c-36 0 -40 3 -40 25 0 20 -5
25 -23 25 -15 0 -29 -9 -37 -25 -7 -14 -19 -25 -26 -25 -8 0 -14 -18 -17 -47
l-3 -48 -2 48 c-2 34 -6 47 -17 47 -12 0 -15 13 -15 55 l0 55 -40 0 c-31 0
-38 -3 -34 -15 4 -8 1 -15 -5 -15 -7 0 -11 -30 -11 -85 0 -69 -3 -85 -15 -85
-13 0 -15 23 -15 145 l0 145 -225 0 -225 0 0 -75 c0 -73 -1 -75 -25 -75 l-25
0 0 388 0 389 -87 27 c-49 14 -94 26 -100 26 -8 0 -13 13 -13 34 0 30 -4 35
-30 41 -17 4 -30 11 -30 16 0 5 -13 9 -30 9 -28 0 -30 3 -30 36 0 23 -6 42
-17 50 -28 21 -33 17 -33 -26 l0 -40 -56 0 c-34 0 -53 -4 -49 -10 7 -12 -4
-16 -67 -25 l-48 -6 0 -40 0 -39 -75 0 -75 0 0 -439 c0 -482 4 -451 -61 -451
l-29 0 0 69 c0 39 -4 73 -10 76 -5 3 -10 24 -10 46 l0 40 -42 -3 -43 -3 -3
-52 -3 -53 -45 0 -44 0 0 -70 0 -70 -114 0 -115 0 -3 -42 c-2 -23 -9 -43 -15
-46 -10 -3 -13 38 -13 182 0 117 -4 186 -10 186 -5 0 -10 14 -10 30 l0 30
-110 0 c-89 0 -112 3 -116 15 -4 8 -15 15 -25 15 -16 0 -19 7 -19 43 l0 42
-73 -1 c-39 -1 -114 -2 -164 -3 l-93 -1 0 -50 0 -50 -115 0 -115 0 0 -30 c0
-20 -5 -30 -15 -30 -12 0 -15 -13 -15 -60 l0 -60 -35 0 -35 0 0 225 c0 218 1
225 20 225 16 0 20 7 20 30 0 29 -1 30 -50 30 -38 0 -50 4 -50 15 0 12 -19 15
-115 15 l-115 0 0 31 c0 33 -30 74 -38 51 -5 -15 -202 -17 -202 -2 0 6 -16 10
-35 10 -24 0 -35 -5 -35 -15 0 -8 -9 -15 -20 -15 -16 0 -20 -7 -20 -35 l0 -35
-110 0 c-67 0 -110 -4 -110 -10 0 -5 -20 -10 -45 -10 -45 0 -45 0 -45 -35 0
-31 3 -35 25 -35 l25 0 -2 -565 -3 -565 305 -3 305 -2 -357 -3 c-247 -1 -358
1 -358 9 0 5 -4 7 -10 4 -5 -3 -10 -30 -10 -60 0 -51 -1 -54 -27 -57 l-28 -3
-3 -242 c-2 -207 -5 -243 -17 -243 -13 0 -15 -22 -15 -132 l0 -131 1600 7
1601 7 71 25 c39 13 86 24 105 24 28 0 33 -3 33 -25 l0 -25 1948 -3 c1736 -3
1960 -5 2067 -20 109 -15 370 -16 2748 -17 l2627 0 0 1255 0 1255 -125 0 -125
0 0 -460 0 -460 -80 0 -80 0 0 130 c0 123 -1 130 -20 130 -11 0 -20 5 -20 10
0 6 -7 10 -15 10 -7 0 -18 6 -22 14 -5 9 -28 16 -58 18 l-50 3 -3 48 c-3 39
-6 47 -23 47 -15 0 -19 7 -19 36 0 28 -3 35 -17 32 -15 -2 -20 -20 -28 -88 -6
-50 -14 -83 -20 -80 -6 3 -11 -7 -13 -22 -3 -22 -9 -28 -28 -28 l-24 0 0 -130
0 -130 -65 0 -65 0 0 -100 0 -100 -165 0 -165 0 0 287 0 287 -42 43 -42 43
-211 0 -211 0 -42 -43 -42 -43 0 -357 0 -357 -150 0 -150 0 0 55 0 55 -50 0
-50 0 0 -55 0 -55 -70 0 c-64 0 -70 2 -70 21 0 11 -18 47 -40 79 l-40 59 0
341 c0 286 -2 346 -15 370 -15 29 -35 40 -35 20 0 -5 -3 -10 -8 -10 -6 0 -19
40 -64 208 -5 17 -12 32 -17 32 -4 0 -16 -35 -26 -77 -33 -143 -46 -179 -56
-160 -14 25 -26 21 -44 -13 -11 -21 -15 -62 -15 -154 0 -69 -5 -137 -11 -153
-7 -17 -11 -99 -10 -205 l1 -178 -65 0 c-63 0 -65 1 -65 25 0 23 -4 25 -45 25
l-45 0 0 74 c0 41 -4 78 -10 81 -5 3 -10 19 -10 35 0 22 -8 33 -35 50 -20 13
-35 30 -35 41 0 12 -7 19 -20 19 -11 0 -20 -6 -20 -14 0 -8 -18 -29 -40 -46
l-40 -32 0 -104 0 -104 -115 0 c-70 0 -115 -4 -115 -10 0 -5 -10 -10 -23 -10
-13 0 -28 -5 -35 -12 -9 -9 -12 -9 -12 0 0 8 -20 12 -60 12 -57 0 -60 -1 -60
-25 0 -21 -5 -25 -30 -25 -23 0 -30 -4 -30 -20 0 -16 -7 -20 -30 -20 -29 0
-30 -2 -30 -45 0 -38 -3 -45 -20 -45 -17 0 -20 -7 -22 -52 -1 -51 -2 -51 -5
-10 -3 34 -8 42 -24 42 -16 0 -19 7 -19 50 0 36 -4 52 -15 56 -9 4 -15 19 -15
40 0 34 -1 34 -45 34 l-45 0 0 65 c0 51 -3 65 -15 65 -12 0 -15 -14 -15 -64 0
-59 -2 -65 -22 -68 -20 -3 -23 -10 -26 -50 l-3 -48 -108 0 -107 0 -34 35 -34
35 -28 -27 -28 -27 0 242 c0 235 -1 242 -20 242 -35 0 -60 35 -60 85 l0 45
-175 0 -175 0 0 -60 c0 -33 -4 -60 -10 -60 -6 0 -10 -60 -10 -160 0 -88 -3
-160 -6 -160 -3 0 -14 5 -25 11 -19 9 -20 20 -18 167 l1 157 -96 3 -96 3 0 84
0 85 -50 0 c-43 0 -50 3 -50 20 0 19 -7 20 -90 20 l-90 0 0 100 0 100 -75 0
-75 0 0 175 0 175 -155 0 -155 0 -6 24 c-3 14 -12 27 -19 29 -7 3 -16 18 -20
34 -3 15 -11 31 -17 34 -6 4 -13 62 -17 130 l-7 124 -5 -108z m2796 -1137 c3
-5 1 -10 -4 -10 -6 0 -11 5 -11 10 0 6 2 10 4 10 3 0 8 -4 11 -10z m-8607
-922 l-2 -63 -3 53 -4 52 -130 0 c-79 0 -129 4 -129 10 0 6 52 10 135 10 l135
0 -2 -62z m-308 -12 l0 -44 -355 0 -355 0 0 44 0 44 355 0 355 0 0 -44z m290
-1 l0 -46 -125 2 -125 2 0 44 0 43 125 0 125 0 0 -45z m-290 -65 c0 -6 -137
-10 -390 -10 -253 0 -390 4 -390 10 0 6 137 10 390 10 253 0 390 -4 390 -10z
m310 0 c0 -6 -52 -10 -135 -10 -83 0 -135 4 -135 10 0 6 52 10 135 10 83 0
135 -4 135 -10z"/>
</g>
</svg>
