<?xml version="1.0" standalone="no"?>
<!DOCTYPE svg PUBLIC "-//W3C//DTD SVG 20010904//EN"
 "http://www.w3.org/TR/2001/REC-SVG-20010904/DTD/svg10.dtd">
<svg version="1.0" xmlns="http://www.w3.org/2000/svg"
 width="1280.000000pt" height="640.000000pt" viewBox="0 0 1280.000000 640.000000"
 preserveAspectRatio="xMidYMid meet">
<g transform="translate(0.000000,640.000000) scale(0.100000,-0.100000)"
fill="#000000" stroke="none">
<path d="M11072 5133 c-73 -3 -82 -6 -78 -21 19 -64 19 -75 -2 -91 l-21 -16
19 -610 c10 -335 22 -673 25 -751 5 -110 4 -143 -7 -151 -8 -7 -121 -14 -301
-18 -158 -4 -290 -11 -292 -15 -3 -5 -10 -221 -15 -482 -6 -260 -13 -479 -15
-486 -2 -6 -20 -12 -40 -12 l-35 0 0 740 0 739 -62 3 -63 3 -5 60 -5 60 -220
7 c-121 5 -225 6 -231 4 -6 -3 -15 -31 -18 -63 -11 -87 -12 -89 -76 -113 -66
-25 -67 -28 -73 -140 -2 -61 -6 -63 -88 -46 -32 7 -37 5 -42 -13 -6 -24 -18
-25 -102 -8 l-60 13 -3 46 -3 47 -82 3 -82 3 0 50 c0 28 4 116 9 196 l8 146
-63 6 c-35 3 -66 4 -68 2 -2 -2 -9 -90 -15 -194 -6 -105 -16 -195 -21 -200 -6
-5 -28 -11 -50 -13 -37 -3 -40 -5 -46 -41 -3 -20 -9 -41 -13 -45 -4 -4 -33 -9
-64 -12 l-57 -5 -5 -475 -5 -475 -62 -3 -63 -3 0 -99 0 -98 -27 -6 c-25 -5
-159 -10 -190 -7 -7 1 -13 14 -13 31 0 24 -7 33 -40 50 l-40 20 0 75 0 75 -35
0 c-20 0 -38 6 -40 13 -3 6 -1 183 4 392 6 277 5 383 -3 391 -6 6 -51 24 -101
39 -105 31 -115 38 -115 74 0 16 -10 37 -24 50 -20 19 -33 22 -73 19 -47 -3
-48 -2 -51 27 -5 55 -12 75 -28 75 -14 0 -16 9 -12 50 6 58 -1 67 -57 72 -50
4 -62 26 -71 130 -5 75 -7 78 -29 72 -12 -3 -25 -1 -29 4 -3 5 -10 83 -16 173
-16 228 -8 209 -84 209 l-63 0 -7 -52 c-3 -29 -6 -96 -7 -148 -1 -52 -4 -126
-8 -165 -5 -61 -9 -71 -31 -82 -21 -10 -26 -21 -30 -70 -5 -57 -6 -58 -37 -61
l-33 -3 0 -58 c0 -59 -11 -81 -42 -81 -17 0 -18 -14 -18 -200 l0 -200 -26 -10
c-14 -6 -94 -10 -179 -10 -170 0 -185 -5 -185 -62 0 -22 -6 -31 -21 -35 -19
-5 -20 -11 -15 -147 11 -282 15 -731 7 -751 -6 -14 -11 4 -16 63 -5 56 -14 90
-26 106 -16 20 -17 31 -9 82 5 32 9 59 7 60 -1 1 -51 6 -112 9 -60 4 -116 12
-123 18 -13 10 -13 23 4 169 l6 47 -99 3 -98 3 4 108 3 109 -36 30 -36 29 6
69 7 69 -34 5 c-19 3 -141 7 -271 9 l-238 5 0 -47 c0 -52 -13 -71 -47 -71 -17
0 -27 -9 -37 -35 -8 -19 -22 -38 -31 -41 -13 -5 -15 -39 -15 -244 0 -152 -4
-241 -10 -245 -15 -10 -68 4 -73 19 -3 7 -9 110 -13 230 -4 147 -10 216 -18
216 -6 0 -42 -5 -81 -10 -100 -15 -124 -8 -131 40 -6 36 -9 39 -43 42 -32 3
-36 6 -39 34 l-3 31 -106 7 c-58 3 -134 6 -168 6 -34 0 -66 5 -73 12 -7 7 -12
31 -12 55 l0 42 -73 3 -72 3 2 557 2 558 -22 5 c-28 6 -264 42 -375 57 -75 10
-84 9 -95 -6 -8 -11 -41 -23 -86 -32 -41 -7 -75 -15 -76 -16 -1 -2 1 -192 4
-423 4 -231 4 -426 2 -434 -4 -14 -63 -13 -279 6 l-72 6 0 -95 c0 -61 -4 -98
-12 -106 -9 -9 -15 -114 -20 -394 -5 -240 -12 -386 -18 -392 -12 -12 -256 26
-273 43 -6 6 -2 31 12 72 11 34 19 64 18 66 -4 3 -148 4 -222 0 l-50 -2 -3
267 -2 267 -43 36 c-23 20 -69 52 -102 72 -33 19 -62 37 -64 38 -1 2 -6 28
-10 57 l-6 53 -115 0 c-107 0 -115 -1 -118 -20 -11 -63 -26 -98 -55 -125 -31
-29 -35 -30 -122 -30 -49 1 -150 5 -224 10 -74 4 -140 6 -147 3 -8 -3 -23 -21
-35 -40 -25 -40 -62 -43 -67 -6 -3 21 -7 22 -60 18 -31 -3 -163 -10 -292 -16
-129 -6 -236 -12 -237 -13 -1 -1 2 -107 7 -236 5 -129 10 -323 12 -430 l3
-195 -170 0 -170 0 0 118 0 119 -100 1 -100 2 -6 185 c-4 102 -7 350 -8 553
l-1 367 -82 180 -81 180 -39 6 c-28 5 -39 12 -43 28 -5 25 -25 295 -28 381
l-2 60 -70 0 -70 0 -6 -180 c-4 -99 -7 -197 -8 -217 -1 -27 -9 -45 -30 -65
-16 -15 -83 -94 -149 -174 l-119 -147 -6 -603 c-4 -331 -7 -831 -7 -1111 l0
-508 -40 -25 c-22 -14 -60 -35 -85 -47 l-45 -22 0 -248 0 -248 6298 0 6297 1
40 24 c26 16 55 25 83 25 35 0 42 3 42 20 0 11 9 25 20 32 27 17 28 95 3 113
-16 12 -17 33 -15 216 5 299 21 914 28 1064 l7 130 -94 25 c-52 14 -101 25
-109 25 -11 0 -16 -16 -20 -65 l-5 -65 -158 1 c-125 1 -161 4 -168 15 -5 8 -9
44 -9 81 0 59 -2 67 -21 73 -16 6 -19 12 -14 32 6 26 6 26 -42 19 -26 -4 -74
-9 -105 -13 l-58 -6 0 43 0 43 -47 -7 c-27 -3 -91 -9 -145 -12 l-96 -7 -6 64
c-3 35 -10 483 -16 994 -6 512 -13 949 -16 973 l-5 42 -257 -2 c-141 -1 -294
-4 -340 -5z m469 -288 c3 -88 4 -166 1 -172 -2 -8 -21 -13 -43 -13 -23 0 -41
5 -44 13 -2 6 -9 81 -15 166 -13 173 -13 173 55 169 l40 -3 6 -160z m-247 56
c3 -5 10 -75 16 -157 6 -82 13 -163 16 -180 l4 -31 81 -6 c45 -3 86 -10 92
-16 12 -12 31 -1011 19 -1023 -4 -4 -48 -8 -97 -10 l-90 -3 -3 -140 c-3 -144
-11 -176 -38 -141 -11 15 -14 54 -14 162 l0 143 -55 11 c-36 7 -56 17 -59 28
-7 28 -19 1349 -12 1361 8 13 132 15 140 2z m-6794 -394 l65 -12 -4 -705 c-2
-388 -6 -811 -10 -940 l-6 -235 -70 3 c-38 1 -70 4 -72 6 -2 1 -10 344 -18
762 -8 417 -17 839 -21 936 -3 97 -3 182 1 187 8 14 53 13 135 -2z m-276 -84
c10 -120 7 -683 -3 -683 -6 0 -12 3 -14 8 -3 4 -8 175 -12 380 -6 323 -5 372
7 372 11 0 17 -19 22 -77z m-3585 -176 c17 -8 41 -48 79 -132 l55 -120 5 -502
4 -503 -27 -10 c-34 -13 -100 -16 -142 -6 -28 7 -33 5 -38 -16 -16 -74 -26
-214 -32 -454 l-6 -271 52 -69 53 -69 -7 -120 c-4 -66 -10 -140 -14 -165 -7
-45 -7 -45 -44 -44 -45 2 -264 80 -269 97 -3 7 -2 493 0 1081 l4 1069 85 106
c47 58 94 114 105 124 24 20 101 23 137 4z m9392 -297 c15 -9 19 -22 19 -70
l0 -59 63 -3 62 -3 0 -615 c-1 -579 -20 -1616 -31 -1669 -5 -24 -6 -24 -97
-17 -93 7 -436 54 -448 61 -6 4 -24 1363 -24 1795 l0 185 25 -1 c14 0 39 -3
55 -5 l30 -4 6 110 c4 61 7 118 8 127 1 11 21 24 60 38 l58 22 6 49 c3 27 9
54 12 59 8 13 171 13 196 0z m-2483 -222 c13 -18 23 -356 24 -826 l0 -394 23
6 c39 10 46 -12 43 -145 l-3 -124 -82 -19 c-65 -15 -83 -23 -87 -40 -3 -12 -6
-173 -6 -358 0 -228 -3 -339 -11 -343 -6 -4 -31 -4 -56 0 l-45 7 7 1106 c5
674 11 1112 17 1119 19 23 159 32 176 11z m-3483 -130 c6 -17 23 -1270 18
-1285 -2 -6 -13 -13 -24 -16 -18 -5 -19 -18 -19 -399 0 -417 0 -418 -47 -418
-43 0 -42 -83 -13 1145 6 264 13 593 15 730 3 138 5 251 5 253 0 9 61 -1 65
-10z m5037 -68 c10 -71 9 -208 -2 -215 -16 -10 -221 -37 -236 -31 -19 7 -20
258 -1 274 13 11 96 19 182 18 l50 -1 7 -45z m305 29 c19 -7 23 -16 23 -48 0
-21 -6 -43 -12 -48 -7 -5 -46 -8 -85 -5 l-73 4 0 52 c0 29 3 56 8 60 8 9 104
-2 139 -15z m-1348 -63 c6 -8 8 -134 4 -351 -6 -310 -8 -340 -25 -357 -12 -12
-18 -33 -18 -62 0 -37 -4 -46 -21 -51 -12 -4 -25 -3 -30 2 -11 11 21 814 33
829 10 14 43 8 57 -10z m-5641 -52 c10 -3 10 -9 2 -24 -9 -17 -8 -20 9 -20 43
0 44 -19 38 -514 -5 -435 -7 -471 -23 -483 -10 -7 -28 -13 -41 -13 -23 0 -23
1 -23 118 0 66 -3 194 -7 285 l-6 167 -60 22 c-32 12 -61 26 -63 32 -10 27
-21 422 -13 433 9 10 151 9 187 -3z m6862 -66 c0 -27 -5 -48 -10 -48 -17 0
-23 27 -15 77 9 58 25 39 25 -29z m-7382 -129 c2 -125 -1 -169 -10 -177 -7 -5
-60 -35 -118 -65 l-105 -56 0 -107 c0 -87 -3 -108 -16 -117 -9 -6 -23 -8 -31
-4 -13 5 -17 51 -24 299 -5 161 -9 313 -9 338 l0 45 45 6 c25 4 95 6 155 5
l110 -1 3 -166z m920 -262 l2 -407 -27 -11 c-14 -5 -63 -8 -107 -7 l-81 3 1
90 c3 243 27 721 37 733 7 9 34 12 91 10 l81 -3 3 -408z m-744 377 c10 -25 7
-272 -3 -279 -5 -3 -12 -1 -15 4 -9 14 -20 256 -13 275 8 20 23 21 31 0z m921
-762 c-3 -3 -8 -2 -12 2 -12 12 -10 738 2 761 7 14 11 -101 13 -369 1 -214 0
-391 -3 -394z m8133 614 c-3 -120 -1 -136 16 -155 11 -12 25 -21 33 -21 8 0
13 -7 11 -17 -3 -15 -15 -18 -73 -19 -81 -1 -130 -22 -147 -62 -6 -16 -10 -78
-9 -149 l2 -122 -63 -3 -63 -3 -1 -566 c0 -311 -4 -570 -7 -576 -10 -17 -194
-28 -212 -13 -12 10 -15 43 -15 164 0 130 -10 328 -36 691 -5 67 -11 95 -25
110 -17 19 -18 35 -9 290 5 149 10 334 10 411 0 105 3 144 13 153 8 6 79 12
183 14 93 1 220 4 282 5 l112 2 -2 -134z m440 -256 c1 -206 3 -393 5 -415 l2
-40 -50 0 -50 0 0 197 c0 108 -3 200 -7 204 -10 9 -11 359 -2 403 6 31 8 32
53 29 l46 -3 3 -375z m-4370 -40 c2 -217 0 -626 -4 -907 l-6 -513 -69 0 c-41
0 -71 5 -75 12 -4 6 -13 165 -21 352 -17 427 -19 443 -42 449 -17 4 -19 20
-25 148 -12 315 -17 731 -8 742 6 7 14 32 19 57 10 54 23 59 143 57 l85 -2 3
-395z m-1125 383 c56 -5 67 -9 67 -24 0 -18 -10 -19 -124 -19 -125 0 -144 5
-132 35 6 17 72 19 189 8z m-1009 -75 c3 -7 7 -25 10 -40 5 -22 12 -27 44 -30
29 -2 38 -8 40 -24 2 -12 14 -26 27 -32 20 -9 24 -20 30 -84 3 -40 5 -131 3
-202 l-3 -130 -118 -1 c-71 0 -121 3 -126 10 -13 15 -18 472 -6 484 6 5 24 11
40 13 18 2 31 9 31 18 3 28 4 30 14 30 6 0 12 -6 14 -12z m4088 -78 c7 -11 20
-20 28 -20 9 0 25 -7 36 -15 13 -10 44 -14 95 -15 50 0 80 -4 87 -13 16 -19
-6 -1497 -22 -1514 -11 -12 -347 -34 -373 -25 -16 5 -16 129 -3 976 6 372 13
613 19 619 9 9 65 23 103 26 10 0 23 -8 30 -19z m-3063 -44 c8 -9 11 -109 9
-347 l-3 -334 -90 -18 c-49 -10 -95 -24 -101 -32 -9 -13 -13 -10 -18 16 -3 17
-6 53 -6 80 l0 48 -52 3 -53 3 -3 75 c-1 41 -7 85 -14 97 -12 24 -6 391 6 412
11 17 310 15 325 -3z m-701 -189 c1 -91 -1 -147 -7 -147 -6 0 -12 15 -15 33
-9 58 -16 254 -9 261 22 21 28 -11 31 -147z m-610 131 c12 -15 37 -331 28
-354 -4 -11 -18 -14 -53 -12 l-48 3 3 180 c2 99 6 183 8 187 8 13 51 9 62 -4z
m-2740 -148 c45 -16 88 -27 96 -24 8 3 32 -4 53 -15 l40 -20 5 -473 c3 -260 2
-572 -1 -693 l-6 -220 -88 -3 c-64 -2 -88 1 -92 10 -2 7 -8 234 -13 505 -6
270 -13 496 -16 502 -5 7 -61 11 -161 11 -170 0 -165 -2 -165 71 0 38 0 39 57
55 84 24 92 39 93 160 0 109 2 114 65 147 40 21 39 21 133 -13z m4350 -142 l3
-108 67 0 c194 0 185 -41 -12 -56 l-95 -7 -3 -31 c-3 -29 -6 -31 -47 -34 -28
-2 -47 1 -52 10 -10 15 -12 298 -3 323 5 13 19 15 73 13 l66 -3 3 -107z m5445
63 c11 -11 33 -1210 22 -1238 -3 -10 -18 -13 -47 -11 l-43 3 -3 460 c-2 395
-4 460 -17 468 -12 7 -15 37 -15 174 l0 166 46 -6 c25 -2 51 -10 57 -16z
m-8615 -25 c5 -25 -25 -67 -43 -60 -21 8 -19 61 3 73 22 13 36 9 40 -13z
m8063 14 c47 -13 49 -23 49 -260 l0 -187 118 -7 c64 -4 121 -11 126 -16 4 -4
11 -184 14 -398 l5 -390 -39 -5 c-21 -4 -158 -11 -303 -18 -223 -10 -265 -10
-272 2 -10 15 -12 931 -3 966 5 19 14 22 68 25 l61 3 -4 126 c-4 171 -5 169
77 169 37 0 83 -5 103 -10z m820 -200 c-1 -113 5 -382 15 -599 17 -386 17
-394 -2 -408 -11 -8 -37 -13 -64 -11 l-45 3 -3 582 c-1 351 2 591 7 606 10 25
35 36 76 33 19 -1 19 -8 16 -206z m-11120 148 c0 -7 0 -53 -1 -103 -1 -106
-10 -121 -61 -108 l-34 9 -3 94 c-1 51 -1 99 2 107 7 17 96 18 97 1z m11494
-96 l40 -8 -3 -93 c-4 -86 -3 -93 15 -87 50 15 109 24 115 18 10 -10 -11 -965
-21 -975 -14 -14 -339 64 -346 82 -7 16 -24 665 -25 929 l0 142 93 -1 c50 0
110 -3 132 -7z m-8807 -56 c2 -16 1 -44 -3 -63 -6 -31 -9 -34 -38 -31 -31 3
-32 5 -35 52 -4 67 1 78 40 74 28 -3 34 -7 36 -32z m5145 12 c14 -12 17 -69
27 -517 8 -344 8 -507 1 -514 -6 -6 -25 -7 -53 -1 l-43 9 -6 110 c-11 189 -22
902 -15 914 10 15 68 14 89 -1z m-3593 -43 c0 -25 -4 -45 -10 -45 -11 0 -14
73 -3 83 11 12 13 8 13 -38z m385 20 c22 -22 25 -32 25 -104 0 -77 -1 -81 -24
-87 -55 -14 -64 -1 -68 99 -2 51 -2 98 0 105 7 20 41 14 67 -13z m-2238 -17
c20 -26 44 -1076 25 -1104 -8 -13 -242 -28 -258 -17 -8 6 -13 155 -18 485 l-7
478 27 35 c14 19 32 35 40 35 27 0 103 44 107 62 3 10 14 18 25 18 12 0 24 5
27 10 8 14 21 13 32 -2z m4814 -44 c30 -15 30 -15 24 -82 -16 -193 -26 -335
-23 -337 2 -1 23 -9 48 -17 54 -17 55 -24 45 -196 -5 -84 -11 -115 -21 -119
-8 -3 -44 12 -81 33 l-66 39 2 280 c2 286 13 415 37 415 3 0 19 -7 35 -16z
m-3323 -10 c83 -5 112 -4 112 5 0 8 15 11 43 9 l42 -3 -2 -67 c-2 -64 -1 -66
25 -74 15 -4 81 -10 147 -13 l120 -6 3 -36 c2 -21 12 -45 23 -54 10 -10 19
-25 19 -33 0 -12 11 -13 59 -8 44 5 60 3 63 -6 6 -18 -8 -258 -20 -343 -5 -38
-13 -150 -17 -248 -6 -150 -10 -179 -24 -185 -21 -10 -761 4 -772 15 -4 4 -5
241 -1 526 8 546 8 545 52 532 8 -2 66 -7 128 -11z m-3355 -9 c-3 -14 -29 -18
-69 -10 -54 10 -40 26 19 23 28 -2 51 -7 50 -13z m7080 -190 c4 -49 6 -225 5
-390 l-3 -300 -31 3 c-17 2 -53 8 -80 15 l-48 12 -1 254 0 254 -30 17 -30 17
0 99 0 99 55 6 c30 3 78 6 105 5 l50 -1 8 -90z m-5713 65 c0 -17 40 -52 74
-63 11 -4 8 -839 -4 -851 -12 -12 -337 9 -355 24 -12 10 -15 37 -15 120 0 125
-5 120 117 120 70 0 73 1 79 27 4 15 4 163 1 328 -4 166 -4 305 0 308 3 4 28
7 55 7 41 0 48 -3 48 -20z m-1757 -10 c15 -18 17 -57 17 -433 0 -226 -4 -418
-9 -426 -8 -12 -24 -13 -96 -4 -48 6 -91 15 -95 19 -5 5 -12 194 -16 420 -5
324 -4 413 6 419 13 8 96 22 145 24 19 1 37 -6 48 -19z m3423 -10 c14 -14 6
-870 -8 -887 -6 -7 -30 -13 -53 -13 -81 0 -75 -37 -75 430 0 230 3 432 6 449
6 30 8 31 63 31 31 0 62 -5 67 -10z m1208 -51 c8 -78 8 -242 0 -263 -8 -22
-80 -22 -88 0 -8 20 -8 171 1 257 l6 67 37 0 37 0 7 -61z m729 51 c17 0 18 -5
13 -35 -7 -33 -6 -35 22 -35 15 0 32 -4 38 -9 5 -5 25 -11 44 -13 l35 -3 0
-90 c1 -131 -2 -123 53 -127 l47 -3 3 -268 2 -267 -22 -9 c-28 -11 -590 -36
-612 -28 -14 6 -16 40 -16 280 0 199 -3 276 -12 285 -7 7 -12 43 -13 90 l0 77
59 9 59 10 36 -42 c39 -46 51 -52 51 -24 0 10 4 22 9 28 6 5 23 45 40 88 17
44 36 83 43 88 7 5 33 6 57 3 24 -3 53 -5 64 -5z m-5003 -8 l45 -7 6 -70 c14
-155 32 -816 22 -826 -6 -6 -56 -3 -139 8 l-129 18 -3 417 c-1 256 2 426 8
442 9 25 13 26 77 25 38 0 88 -4 113 -7z m416 -35 c10 -26 20 -852 10 -865 -6
-9 -34 -12 -94 -10 -81 3 -86 4 -93 28 -17 59 -37 838 -22 853 3 4 48 7 100 7
68 0 95 -4 99 -13z m8496 -262 c3 -148 11 -334 18 -413 6 -78 8 -147 5 -152
-9 -15 -95 -13 -96 3 -4 41 4 823 8 830 3 5 17 7 31 5 l27 -3 7 -270z m-7828
77 c4 -52 5 -132 1 -178 -8 -98 -12 -102 -102 -106 l-58 -3 -3 128 -3 127 26
10 c15 6 39 10 55 10 27 0 29 3 35 55 6 44 11 55 24 53 13 -3 18 -23 25 -96z
m1101 -67 l0 -130 -60 0 -60 0 -3 117 -3 117 48 15 c80 25 78 28 78 -119z
m4118 16 c27 -11 24 14 43 -297 l6 -91 53 -13 c40 -10 61 -10 85 -1 61 21 112
14 191 -26 66 -34 75 -42 88 -81 l16 -44 -55 -49 c-30 -27 -66 -52 -79 -55
-26 -8 -455 25 -487 37 -21 7 -21 15 -29 282 -4 152 -4 284 -1 295 4 11 25 25
54 34 56 19 83 21 115 9z m-1880 -203 c3 -7 2 -101 0 -208 -4 -161 -8 -197
-21 -207 -10 -9 -52 -13 -119 -13 l-103 0 0 213 c0 118 3 217 7 220 3 4 57 7
119 7 81 0 114 -4 117 -12z m-2245 -235 l-3 -178 -55 0 -55 0 1 33 c0 17 1 97
2 177 l2 145 55 0 55 0 -2 -177z m-1230 -81 c-2 -65 -7 -106 -13 -105 -12 3
-19 193 -9 243 l7 35 9 -33 c5 -18 7 -81 6 -140z m-2062 99 c71 -16 181 -49
244 -73 l115 -44 3 -68 c2 -41 -2 -73 -9 -82 -16 -19 -538 -21 -557 -2 -8 8
-12 53 -12 135 0 110 2 125 20 143 26 26 44 25 196 -9z m8110 -223 c26 -18 47
-37 46 -43 -1 -5 -28 -10 -59 -10 l-58 0 -3 43 c-4 52 8 54 74 10z m1204 -35
c29 -5 32 -7 15 -14 -29 -11 -153 -11 -160 1 -19 31 22 35 145 13z"/>
</g>
</svg>
